<?xml version="1.0" encoding="UTF-8" standalone="no"?>
<!DOCTYPE svg PUBLIC "-//W3C//DTD SVG 1.1//EN" "http://www.w3.org/Graphics/SVG/1.1/DTD/svg11.dtd">
<svg width="100%" height="100%" viewBox="0 0 596 46" version="1.1" xmlns="http://www.w3.org/2000/svg" xmlns:xlink="http://www.w3.org/1999/xlink" xml:space="preserve" xmlns:serif="http://www.serif.com/" style="fill-rule:evenodd;clip-rule:evenodd;stroke-linejoin:round;stroke-miterlimit:2;">
    <g transform="matrix(1,0,0,1,-61.5682,-68.3007)">
        <g transform="matrix(0.654366,0,0,0.654366,20.7379,-32.6998)">
            <path d="M62.397,222.609L74.634,222.609L74.634,164.96L76.355,164.96L87.827,222.609L108.668,222.609L120.141,164.96L121.861,164.96L121.861,222.609L134.099,222.609L134.099,155.687L110.676,155.687L99.108,214.004L97.387,214.004L85.819,155.687L62.397,155.687L62.397,222.609Z" style="fill-rule:nonzero;"/>
            <rect x="146.718" y="155.687" width="12.62" height="66.922" style="fill-rule:nonzero;"/>
            <path d="M195.189,223.947C210.676,223.947 220.523,215.534 220.523,203.297C220.523,191.06 211.059,186.089 196.814,183.029L194.615,182.551C186.584,180.83 182.856,178.44 182.856,173.469C182.856,168.498 186.393,165.438 194.041,165.438C201.69,165.438 206.374,168.498 206.374,176.146L206.374,179.014L218.802,179.014L218.802,176.146C218.802,161.614 208.382,154.349 194.041,154.349C179.701,154.349 170.428,161.614 170.428,173.851C170.428,186.089 178.554,190.773 192.416,193.832L194.615,194.31C203.219,196.222 208.095,198.134 208.095,203.679C208.095,209.033 203.793,212.857 195.189,212.857C186.584,212.857 181.326,208.842 181.326,200.811L181.326,198.134L168.898,198.134L168.898,200.811C168.898,215.343 179.701,223.947 195.189,223.947Z" style="fill-rule:nonzero;"/>
            <rect x="229.892" y="155.687" width="12.62" height="66.922" style="fill-rule:nonzero;"/>
            <path d="M281.135,223.947C297.961,223.947 308.669,214.387 308.669,197.178L308.669,181.117C308.669,163.909 297.961,154.349 281.135,154.349C264.309,154.349 253.602,163.909 253.602,181.117L253.602,197.178C253.602,214.387 264.309,223.947 281.135,223.947ZM281.135,212.666C271.766,212.666 266.221,206.739 266.221,197.561L266.221,180.735C266.221,171.557 271.766,165.63 281.135,165.63C290.504,165.63 296.049,171.557 296.049,180.735L296.049,197.561C296.049,206.739 290.504,212.666 281.135,212.666Z" style="fill-rule:nonzero;"/>
            <path d="M319.759,222.609L332.187,222.609L332.187,164.291L333.908,164.291L347.197,222.609L371.193,222.609L371.193,155.687L358.764,155.687L358.764,214.004L357.044,214.004L343.755,155.687L319.759,155.687L319.759,222.609Z" style="fill-rule:nonzero;"/>
            <path d="M383.812,222.609L427.407,222.609L427.407,211.136L396.432,211.136L396.432,194.597L424.157,194.597L424.157,183.125L396.432,183.125L396.432,167.159L426.833,167.159L426.833,155.687L383.812,155.687L383.812,222.609Z" style="fill-rule:nonzero;"/>
            <path d="M460.007,223.947C475.495,223.947 485.342,215.534 485.342,203.297C485.342,191.06 475.877,186.089 461.633,183.029L459.434,182.551C451.403,180.83 447.675,178.44 447.675,173.469C447.675,168.498 451.212,165.438 458.86,165.438C466.508,165.438 471.193,168.498 471.193,176.146L471.193,179.014L483.621,179.014L483.621,176.146C483.621,161.614 473.201,154.349 458.86,154.349C444.52,154.349 435.246,161.614 435.246,173.851C435.246,186.089 443.373,190.773 457.235,193.832L459.434,194.31C468.038,196.222 472.914,198.134 472.914,203.679C472.914,209.033 468.612,212.857 460.007,212.857C451.403,212.857 446.145,208.842 446.145,200.811L446.145,198.134L433.717,198.134L433.717,200.811C433.717,215.343 444.52,223.947 460.007,223.947Z" style="fill-rule:nonzero;"/>
            <path d="M544.424,223.947C560.868,223.947 570.237,214.387 570.237,198.708L570.237,197.37L557.809,197.37L557.809,199.09C557.809,206.93 553.411,212.666 544.424,212.666C535.438,212.666 530.084,206.739 530.084,197.37L530.084,180.926C530.084,171.557 535.438,165.63 544.424,165.63C553.411,165.63 557.809,171.366 557.809,179.205L557.809,180.161L570.237,180.161L570.237,179.588C570.237,163.909 560.868,154.349 544.424,154.349C527.79,154.349 517.465,163.909 517.465,181.117L517.465,197.178C517.465,214.387 527.79,223.947 544.424,223.947Z" style="fill-rule:nonzero;"/>
            <path d="M606.375,223.947C622.819,223.947 632.57,214.387 632.57,199.09L632.57,155.687L619.95,155.687L619.95,199.473C619.95,207.695 615.17,212.666 606.375,212.666C597.579,212.666 592.799,207.695 592.799,199.473L592.799,155.687L580.18,155.687L580.18,199.09C580.18,214.387 589.931,223.947 606.375,223.947Z" style="fill-rule:nonzero;"/>
            <path d="M644.807,222.609L688.019,222.609L688.019,211.136L657.427,211.136L657.427,155.687L644.807,155.687L644.807,222.609Z" style="fill-rule:nonzero;"/>
            <path d="M702.933,222.609L715.553,222.609L715.553,167.159L735.056,167.159L735.056,155.687L683.431,155.687L683.431,167.159L702.933,167.159L702.933,222.609Z" style="fill-rule:nonzero;"/>
            <path d="M769.473,223.947C785.916,223.947 795.668,214.387 795.668,199.09L795.668,155.687L783.048,155.687L783.048,199.473C783.048,207.695 778.268,212.666 769.473,212.666C760.677,212.666 755.897,207.695 755.897,199.473L755.897,155.687L743.278,155.687L743.278,199.09C743.278,214.387 753.029,223.947 769.473,223.947Z" style="fill-rule:nonzero;"/>
            <path d="M807.905,222.609L820.524,222.609L820.524,197.37L838.115,197.37C841.844,197.37 843.278,199.473 843.278,202.532L843.278,222.609L855.897,222.609L855.897,200.716C855.897,195.362 852.934,191.92 847.867,191.633L847.867,189.913C853.507,187.618 857.809,182.742 857.809,174.712L857.809,173.565C857.809,162.762 849.492,155.687 836.968,155.687L807.905,155.687L807.905,222.609ZM820.524,185.897L820.524,167.159L835.63,167.159C841.748,167.159 845.19,170.697 845.19,176.05L845.19,177.006C845.19,182.36 841.557,185.897 835.63,185.897L820.524,185.897Z" style="fill-rule:nonzero;"/>
            <path d="M863.737,222.609L876.739,222.609L880.372,207.886L904.272,207.886L907.905,222.609L920.907,222.609L903.316,155.687L881.328,155.687L863.737,222.609ZM883.335,196.222L891.462,163.622L893.182,163.622L901.309,196.222L883.335,196.222Z" style="fill-rule:nonzero;"/>
            <path d="M928.938,222.609L972.15,222.609L972.15,211.136L941.557,211.136L941.557,155.687L928.938,155.687L928.938,222.609Z" style="fill-rule:nonzero;"/>
        </g>
    </g>
</svg>
